<svg version="1.1" viewBox="0.0 0.0 32.0 32.0" fill="none" stroke="none" stroke-linecap="square" stroke-miterlimit="10" xmlns:xlink="http://www.w3.org/1999/xlink" xmlns="http://www.w3.org/2000/svg"><clipPath id="p.0"><path d="m0 0l32.0 0l0 32.0l-32.0 0l0 -32.0z" clip-rule="nonzero"/></clipPath><g clip-path="url(#p.0)"><path fill="#000000" fill-opacity="0.0" d="m0 0l32.0 0l0 32.0l-32.0 0z" fill-rule="evenodd"/><path fill="#000000" d="m1.4698163E-5 5.3334346l0 0c0 -2.9455776 2.3878624 -5.3334403 5.33344 -5.3334403l21.33312 0l0 0c1.4145164 0 2.7710972 0.5619144 3.7713127 1.5621284c1.0002136 1.000214 1.5621281 2.3567953 1.5621281 3.7713118l0 21.33312c0 2.9455757 -2.3878632 5.333439 -5.333441 5.333439l-21.33312 0c-2.9455774 0 -5.33344 -2.3878632 -5.33344 -5.333439z" fill-rule="evenodd"/><path fill="#000000" fill-opacity="0.0" d="m0 0l26.519686 0l0 32.0l-26.519686 0z" fill-rule="evenodd"/><path fill="#ffffff" d="m19.00985 8.387501l4.421875 0l-2.265625 10.6875q-0.46875 2.234375 -1.734375 3.28125q-1.265625 1.046875 -3.515624 1.046875l-4.59375 0q-2.3125 0 -3.171875 -1.109375q-0.859375 -1.109375 -0.359375 -3.375l2.21875 -10.53125l4.421875 0l-2.265625 10.6875q-0.15625 0.71875 0.546875 0.71875l3.0 0q0.87499905 0 1.078124 -0.875l2.21875 -10.53125z" fill-rule="nonzero"/></g></svg>