<svg version="1.1" viewBox="0.0 0.0 128.0 128.0" fill="none" stroke="none" stroke-linecap="square" stroke-miterlimit="10" xmlns:xlink="http://www.w3.org/1999/xlink" xmlns="http://www.w3.org/2000/svg"><clipPath id="p.0"><path d="m0 0l128.0 0l0 128.0l-128.0 0l0 -128.0z" clip-rule="nonzero"/></clipPath><g clip-path="url(#p.0)"><path fill="#000000" fill-opacity="0.0" d="m0 0l128.0 0l0 128.0l-128.0 0z" fill-rule="evenodd"/><path fill="#000000" d="m5.8277532E-5 21.333626l0 0c0 -11.7822485 9.5514 -21.333649 21.333649 -21.333649l85.33203 0l0 0c5.6580353 0 11.084335 2.2476459 15.085167 6.2484813c4.000839 4.0008354 6.2484818 9.427132 6.2484818 15.085167l0 85.33478c0 11.782249 -9.551399 21.333641 -21.333649 21.333641l-85.33203 0l0 0c-11.782249 0 -21.333649 -9.551392 -21.333649 -21.333641z" fill-rule="evenodd"/><path fill="#000000" fill-opacity="0.0" d="m0 0l106.07874 0l0 128.0l-106.07874 0z" fill-rule="evenodd"/><path fill="#ffffff" d="m76.05502 33.487503l17.796875 0l-9.09375 42.796875q-1.921875 8.96875 -6.984375 13.140625q-5.0625 4.171875 -14.046871 4.171875l-18.40625 0q-9.1875 0 -12.6875 -4.40625q-3.484375 -4.421875 -1.53125 -13.59375l8.953125 -42.109375l17.796875 0l-9.09375 42.796875q-0.59375 2.796875 2.15625 2.796875l12.0 0q3.4531212 0 4.187496 -3.484375l8.953125 -42.109375z" fill-rule="nonzero"/></g></svg>