<svg version="1.1" viewBox="0.0 0.0 64.0 64.0" fill="none" stroke="none" stroke-linecap="square" stroke-miterlimit="10" xmlns:xlink="http://www.w3.org/1999/xlink" xmlns="http://www.w3.org/2000/svg"><clipPath id="p.0"><path d="m0 0l64.0 0l0 64.0l-64.0 0l0 -64.0z" clip-rule="nonzero"/></clipPath><g clip-path="url(#p.0)"><path fill="#000000" fill-opacity="0.0" d="m0 0l64.0 0l0 64.0l-64.0 0z" fill-rule="evenodd"/><path fill="#000000" d="m2.9133858E-5 10.666869l0 0c0 -5.8911552 4.775725 -10.666881 10.66688 -10.666881l42.66624 0l0 0c2.829033 0 5.5421944 1.1238288 7.5426216 3.1242568c2.000431 2.000428 3.12426 4.7135906 3.12426 7.5426235l0 42.66624c0 5.8911514 -4.7757263 10.666878 -10.666882 10.666878l-42.66624 0c-5.8911552 0 -10.66688 -4.7757263 -10.66688 -10.666878z" fill-rule="evenodd"/><path fill="#000000" fill-opacity="0.0" d="m0 0l53.03937 0l0 64.0l-53.03937 0z" fill-rule="evenodd"/><path fill="#ffffff" d="m38.035324 16.743752l8.875 0l-4.546875 21.40625q-0.953125 4.46875 -3.484375 6.5625q-2.53125 2.09375 -7.031248 2.09375l-9.1875 0q-4.609375 0 -6.34375 -2.21875q-1.734375 -2.21875 -0.765625 -6.78125l4.484375 -21.0625l8.875 0l-4.546875 21.40625q-0.296875 1.390625 1.09375 1.390625l6.0 0q1.7343731 0 2.093748 -1.734375l4.484375 -21.0625z" fill-rule="nonzero"/></g></svg>